<?xml version="1.0" standalone="no"?><!DOCTYPE svg PUBLIC "-//W3C//DTD SVG 1.1//EN" "http://www.w3.org/Graphics/SVG/1.1/DTD/svg11.dtd"><svg t="1531533326267" class="icon" style="" viewBox="0 0 1024 1024" version="1.1" xmlns="http://www.w3.org/2000/svg" p-id="6443" xmlns:xlink="http://www.w3.org/1999/xlink" width="16" height="16"><defs><style type="text/css"></style></defs><path d="M627.2 665.6s-12.8-19.2-12.8-44.8v-32c57.6-32 96-89.6 121.6-166.4 25.6-6.4 38.4-32 38.4-57.6v-64c0-19.2-12.8-38.4-25.6-51.2C742.4 108.8 684.8 0 512 0S281.6 102.4 268.8 243.2c-12.8 6.4-25.6 19.2-25.6 44.8v70.4c0 25.6 19.2 57.6 38.4 70.4 25.6 70.4 64 134.4 121.6 166.4v32c0 25.6-12.8 44.8-12.8 44.8C256 691.2 0 806.4 0 902.4S76.8 1024 172.8 1024h672c96 0 172.8-19.2 172.8-121.6s-249.6-211.2-390.4-236.8z" fill="" p-id="6444"></path></svg>