<?xml version="1.0" standalone="no"?><!DOCTYPE svg PUBLIC "-//W3C//DTD SVG 1.1//EN" "http://www.w3.org/Graphics/SVG/1.1/DTD/svg11.dtd"><svg t="1531537234003" class="icon" style="" viewBox="0 0 1024 1024" version="1.1" xmlns="http://www.w3.org/2000/svg" p-id="2435" xmlns:xlink="http://www.w3.org/1999/xlink" width="16" height="16"><defs><style type="text/css"></style></defs><path d="M696.888889 540.444444H540.444444v156.444445a21.333333 21.333333 0 1 1-42.666666 0V540.444444H327.111111a21.333333 21.333333 0 1 1 0-42.666666h170.666667V327.111111a21.333333 21.333333 0 1 1 42.666666 0v170.666667h156.444445a21.333333 21.333333 0 1 1 0 42.666666M512 0C229.233778 0 0 229.233778 0 512s229.233778 512 512 512 512-229.233778 512-512S794.766222 0 512 0" p-id="2436"></path></svg>