<?xml version="1.0" standalone="no"?><!DOCTYPE svg PUBLIC "-//W3C//DTD SVG 1.1//EN" "http://www.w3.org/Graphics/SVG/1.1/DTD/svg11.dtd"><svg t="1531532640166" class="icon" style="" viewBox="0 0 1024 1024" version="1.1" xmlns="http://www.w3.org/2000/svg" p-id="9426" xmlns:xlink="http://www.w3.org/1999/xlink" width="200" height="200"><defs><style type="text/css"></style></defs><path d="M946.1 473.7c-2.9-3.7-6.1-7.5-9.5-11.1-70.1-75.7-149.3-134.1-235.3-173.7-60.1-27.6-121.5-42.1-182.7-43.1s-122.7 11.6-182.9 37.3c-91.7 39.2-173.5 98.4-249.9 181.1-28.8 31.1-28.9 64.2-0.3 95.8 58.8 64.9 128.7 119.2 207.7 161.3 28.7 15.3 58.1 27.7 87.2 36.9 43.5 13.4 88.2 20.3 132.9 20.3 10.8 0 21.5-0.4 32.8-1.3h0.4c18.9-2.1 40.4-4.5 62-9.9 123-30.8 232.9-101 336-214.8 20.2-22.4 20.8-54 1.6-78.8z m-352.6 233.8c-17.4 4.4-36.1 6.5-52.7 8.3h-0.3c-47.6 3.5-95.3-2.1-141.9-16.5-25.5-8.1-51.3-19-76.7-32.5-72.7-38.7-136.9-88.6-191-148.3-3.4-3.7-4.7-5.6-5.2-6.5 0.6-0.9 2-2.8 5.1-6.2 70.5-76.2 145.3-130.6 228.9-166.3 50.6-21.6 101.8-32.6 152.1-32.6 54.1 0 109.1 12.7 163.5 37.7 78.7 36.2 151.4 89.9 215.9 159.6 2.4 2.6 4.4 4.9 6.1 7.1 0.2 0.2 0.3 0.4 0.4 0.6-94.2 104-193.7 168-304.2 195.6z" p-id="9427"></path><path d="M510.2 355.8c-87.9 0-159.4 71.5-159.4 159.4s71.5 159.4 159.4 159.4 159.4-71.5 159.4-159.4-71.5-159.4-159.4-159.4z m0 257.2c-53.9 0-97.8-43.9-97.8-97.8s43.9-97.8 97.8-97.8 97.8 43.9 97.8 97.8c0.1 53.9-43.8 97.8-97.8 97.8z" p-id="9428"></path></svg>