<?xml version="1.0" standalone="no"?><!DOCTYPE svg PUBLIC "-//W3C//DTD SVG 1.1//EN" "http://www.w3.org/Graphics/SVG/1.1/DTD/svg11.dtd"><svg t="1531733783378" class="icon" style="" viewBox="0 0 1024 1024" version="1.1" xmlns="http://www.w3.org/2000/svg" p-id="3749" xmlns:xlink="http://www.w3.org/1999/xlink" width="16" height="16"><defs><style type="text/css"></style></defs><path d="M975.645 525.348L555.964 105.667c-25.934-25.934-68.132-25.935-94.065 0L42.218 525.348c-9.991 9.991-9.991 26.189 0 36.18s26.189 9.991 36.179 0l34.64-34.641V889.73c0 36.677 29.839 66.516 66.515 66.516h654.916c36.677 0 66.516-29.839 66.516-66.516V523.045l38.481 38.482a25.5 25.5 0 0 0 18.09 7.492c6.549 0 13.095-2.496 18.09-7.492 9.99-9.991 9.99-26.188 0-36.179zM625.613 931.367v-256.85s0.989-12.972-15.351-15.351h-204.66s-15.35-0.42-15.35 15.351v256.85l-51.166 0.001v-256.85s0.337-57.729 60.922-66.277c26.915-0.237 210.254-0.237 210.254-0.237s55.661-2.715 66.22 60.28l0.295 263.085-51.164-0.002z" p-id="3750"></path></svg>