<?xml version="1.0" standalone="no"?><!DOCTYPE svg PUBLIC "-//W3C//DTD SVG 1.1//EN" "http://www.w3.org/Graphics/SVG/1.1/DTD/svg11.dtd"><svg t="1531580074583" class="icon" style="" viewBox="0 0 1024 1024" version="1.1" xmlns="http://www.w3.org/2000/svg" p-id="15550" xmlns:xlink="http://www.w3.org/1999/xlink" width="16" height="16"><defs><style type="text/css"></style></defs><path d="M0 512A512 512 0 1 0 512 0 512 512 0 0 0 0 512z" fill="#D12F1A" p-id="15551"></path><path d="M341.333333 260.48L391.04 405.333333h159.573333l-129.28 94.506667L469.333333 645.333333l-128-85.333333-128 85.333333 48-144.64L133.76 405.333333h159.786667z m512 290.346667l16.64 46.506666h51.84l-42.666666 30.933334 16.853333 47.36-42.666667-27.733334-41.173333 27.733334 15.573333-46.72L786.773333 597.333333h51.626667l14.933333-46.506666z m-33.92-215.04l35.413334 35.2 46.08-22.826667-23.893334 45.866667 34.773334 35.2-49.28-6.613334-24.746667 42.666667-5.76-48.213333-50.986667-9.173334 46.506667-22.826666-7.04-49.28zM650.666667 213.333333l46.933333 16.853334 32.213333-40.32-2.133333 51.84 46.08 17.066666-47.36 14.933334-4.053333 49.493333-26.88-42.026667-50.133334 13.226667 32.426667-40.32L650.666667 213.333333z m0 512l46.933333 17.28 32.213333-40.533333-2.133333 52.053333 46.08 17.066667-47.36 14.72-4.053333 49.706667-26.88-42.026667-50.133334 13.226667 32.426667-40.32z" fill="#F5D522" p-id="15552"></path></svg>