<?xml version="1.0" standalone="no"?><!DOCTYPE svg PUBLIC "-//W3C//DTD SVG 1.1//EN" "http://www.w3.org/Graphics/SVG/1.1/DTD/svg11.dtd"><svg t="1531555979121" class="icon" style="" viewBox="0 0 1024 1024" version="1.1" xmlns="http://www.w3.org/2000/svg" p-id="9528" xmlns:xlink="http://www.w3.org/1999/xlink" width="16" height="16"><defs><style type="text/css"></style></defs><path d="M881.72013037 673.5583763c6.2137837-12.42756741 9.32067555-24.85513482 15.53445926-40.38959408h-71.4585126l55.92405334 40.38959408zM897.25458963 390.83121778c-3.10689185-12.42756741-9.32067555-27.96202667-15.53445926-40.38959408l-55.92405334 40.38959408h71.4585126zM229.27284148 800.94094222c46.60337778 46.60337778 102.52743111 80.77918815 164.66526815 99.42053926v-211.26864593l-164.66526815 111.84810667zM393.93810963 338.0140563V126.74541037c-62.13783703 18.64135111-121.16878222 52.81716148-164.66526815 99.42053926l164.66526815 111.84810667zM630.06189037 897.25458963c62.13783703-18.64135111 118.06189037-52.81716148 164.66526815-96.31364741l-164.66526815-111.84810667v208.16175408zM198.20392297 390.83121778l-55.92405334-37.28270223c-6.2137837 12.42756741-9.32067555 24.85513482-15.53445926 37.28270223h71.4585126zM126.74541037 633.16878222c3.10689185 12.42756741 9.32067555 27.96202667 15.53445926 40.38959408l55.92405334-40.38959408H126.74541037zM630.06189037 338.0140563l164.66526815-111.84810667c-46.60337778-46.60337778-102.52743111-80.77918815-164.66526815-99.42053926v211.26864593z" fill="#01247D" p-id="9529"></path><path d="M431.22081185 440.54148741h9.32067556V114.31784297c-15.53445925 3.10689185-31.06891852 6.2137837-46.60337778 12.4275674v211.26864593l-164.66526815-111.84810667c-18.64135111 18.64135111-37.28270222 40.38959408-49.71026963 62.13783704L325.58648889 387.72432592h-90.09986371l-83.88608-59.03094517c-3.10689185 6.2137837-6.2137837 15.53445925-9.32067555 21.74824295L198.20392297 387.72432592H126.74541037c-6.2137837 15.53445925-9.32067555 34.17581037-12.4275674 49.71026963h316.90296888zM580.35162075 440.54148741h329.33053628c-3.10689185-15.53445925-6.2137837-34.17581037-12.4275674-49.71026963h-71.4585126l55.92405334-40.38959408c-9.32067555-24.85513482-21.74824297-46.60337778-37.28270222-68.35162073L692.19972741 387.72432592H636.27567408v-21.74824295l177.09283555-124.27567408-18.64135111-18.64135111-164.66526815 111.84810667V126.74541037c-15.53445925-6.2137837-34.17581037-9.32067555-49.71026962-12.4275674v326.22364444zM583.45851259 583.45851259v326.22364444c15.53445925-3.10689185 31.06891852-6.2137837 46.60337778-12.4275674v-211.26864593l164.66526815 111.84810667c18.64135111-18.64135111 37.28270222-40.38959408 52.81716148-62.13783704L698.41351111 636.27567408h90.09986371l83.88608 55.92405333c3.10689185-6.2137837 6.2137837-15.53445925 9.32067555-21.74824296l-55.92405334-40.38959408h71.4585126c6.2137837-15.53445925 9.32067555-34.17581037 12.4275674-49.71026962H583.45851259zM443.64837925 583.45851259H114.31784297c3.10689185 15.53445925 6.2137837 34.17581037 12.4275674 49.71026963h71.4585126l-55.92405334 40.38959408c9.32067555 24.85513482 21.74824297 46.60337778 37.28270222 68.35162073l149.1308089-102.52743111H387.72432592v21.74824297l-177.09283555 121.16878222c6.2137837 6.2137837 12.42756741 12.42756741 18.64135111 21.74824297l164.66526815-111.84810667v211.26864592c15.53445925 6.2137837 34.17581037 9.32067555 49.71026962 12.42756742V583.45851259z" fill="#FFFFFF" p-id="9530"></path><path d="M583.45851259 909.68215703V583.45851259h326.22364444c3.10689185-21.74824297 6.2137837-46.60337778 6.21378372-71.45851259s-3.10689185-49.71026963-6.21378372-71.45851259H580.35162075V114.31784297c-21.74824297-3.10689185-43.49648592-6.2137837-68.35162075-6.21378372-24.85513482 0-49.71026963 3.10689185-71.45851259 6.21378372v326.22364444H114.31784297c-3.10689185 21.74824297-6.2137837 46.60337778-6.21378372 71.45851259s3.10689185 49.71026963 6.21378372 71.45851259h329.33053628v326.22364444c21.74824297 3.10689185 43.49648592 6.2137837 68.35162075 6.21378372 24.85513482 0 49.71026963-3.10689185 71.45851259-6.21378372z" fill="#CF142B" p-id="9531"></path><path d="M776.08580741 636.27567408H698.41351111l149.13080889 102.5274311c9.32067555-15.53445925 18.64135111-27.96202667 24.85513482-46.60337777L788.51337482 636.27567408h-12.42756741zM636.27567408 387.72432592H692.19972741l152.23770074-105.63432295c-9.32067555-15.53445925-21.74824297-27.96202667-31.06891852-40.38959408l-177.09283555 124.27567408v21.74824295zM387.72432592 658.02391703V636.27567408h-59.03094517l-149.1308089 102.5274311c9.32067555 12.42756741 18.64135111 27.96202667 31.06891852 40.38959407l177.09283555-121.16878222zM313.15892148 387.72432592h12.42756741l-149.13080889-102.5274311c-9.32067555 15.53445925-18.64135111 27.96202667-24.85513482 43.49648593l83.88608 59.03094517h77.6722963z" fill="#CF142B" p-id="9532"></path></svg>