<?xml version="1.0" standalone="no"?><!DOCTYPE svg PUBLIC "-//W3C//DTD SVG 1.1//EN" "http://www.w3.org/Graphics/SVG/1.1/DTD/svg11.dtd"><svg t="1531474185446" class="icon" style="" viewBox="0 0 1024 1024" version="1.1" xmlns="http://www.w3.org/2000/svg" p-id="2559" xmlns:xlink="http://www.w3.org/1999/xlink" width="200" height="200"><defs><style type="text/css"></style></defs><path d="M102.398727 102.398707l512.001277 0 0 512.001278-512.001277 0 0-512.001278Z" fill="#F3F1E7" p-id="2560"></path><path d="M233.599731 247.99699q-33.60139 0-57.600724 3.200686v-33.59752q36.802075 1.598408 67.20278 1.598407h227.198341q28.798427 0 68.801188-1.598407v33.59752q-40.002761-1.598408-89.599836-1.598408-7.999778 49.600946-28.802298 92.800522-20.798649 41.597298-44.797983 68.797317 30.400705 27.200019 79.997781 44.801853 49.600946 15.999556 86.399151 19.196372-14.397278 11.204334-25.597742 33.60139-27.200019-6.3975-70.399595-22.397057-43.199576-15.999556-92.800522-54.400039-65.600502 54.400039-156.798746 79.997781-3.200685-14.397278-22.400926-31.999112 27.200019-3.200685 73.60028-19.196371 47.998668-17.601834 81.600058-48.002539-56.002317-57.600724-79.99778-164.802395z m49.600946 1.602278q12.798871 86.399151 68.801188 142.397598 51.199354-62.399817 63.998224-142.397598z m52.797762-116.803726q17.601834 27.20389 41.605038 68.801187-12.802741 3.200685-28.802297 16.003427-22.400927-41.605038-40.002761-68.801188 11.200463-3.200685 27.20002-15.999556z" fill="#575653" p-id="2561"></path><path d="M409.598719 409.5987l512.001277 0 0 512.001277-512.001277 0 0-512.001277Z" fill="#3B81F5" p-id="2562"></path><path d="M800.399682 814.498933h-42.201055l-29.197061-82.997214h-128.801458l-29.200932 82.997214H530.802904l108.401443-297.799189H691.998238z m-83.597101-116.997238l-52.201744-146.20204-52.402997 146.20204z" fill="#F2F2F2" p-id="2563"></path><path d="M217.600175 711.678369l97.278385 97.282256h94.720159v25.597741L491.520007 757.157514l-81.921288-76.197209v30.718064z" fill="#B2CAF4" p-id="2564"></path><path d="M265.637546 532.478697L189.440337 614.399985h28.159838l97.278385 97.278384V614.399985h28.159838z" fill="#3B81F5" p-id="2565"></path><path d="M217.600175 614.399985v97.278384h97.278385z" fill="#2158B5" p-id="2566"></path></svg>