<?xml version="1.0" standalone="no"?><!DOCTYPE svg PUBLIC "-//W3C//DTD SVG 1.1//EN" "http://www.w3.org/Graphics/SVG/1.1/DTD/svg11.dtd"><svg t="1531536868971" class="icon" style="" viewBox="0 0 1025 1024" version="1.1" xmlns="http://www.w3.org/2000/svg" p-id="7811" xmlns:xlink="http://www.w3.org/1999/xlink" width="16.015625" height="16"><defs><style type="text/css"></style></defs><path d="M696.896 37.248c81.696 0 163.36-0.384 245.056 0.128 53.312 0.32 80.288 27.04 81.76 79.52 0.448 15.808 0.32 31.616 0.064 47.424C1022.784 223.36 996.16 250.88 935.904 251.168 776.48 251.872 617.056 251.872 457.6 251.232c-63.136-0.256-90.336-29.28-90.816-92.992-0.096-13.184-0.32-26.368 0.032-39.52 1.376-51.744 29.536-80.832 81.024-81.28C530.88 36.704 613.888 37.248 696.896 37.248z" p-id="7812"></path><path d="M695.84 617.696c-76.384 0-152.768 0.224-229.184-0.032-75.264-0.288-99.776-24.8-99.904-99.04-0.032-10.56-0.224-21.088 0.032-31.616 1.344-51.008 29.408-83.36 80.128-83.808 165.952-1.408 331.904-1.312 497.856-0.16 49.376 0.352 77.184 31.008 78.88 80 0.48 13.152 0.16 26.336 0.128 39.52-0.352 70.016-24.704 94.752-94.848 95.072C851.264 617.952 773.568 617.696 695.84 617.696z" p-id="7813"></path><path d="M697.056 771.392c76.384-0.032 152.768-0.352 229.152 0.064 73.216 0.416 97.344 24.704 97.6 96.768 0.032 13.184 0.384 26.368-0.128 39.52-1.92 47.168-29.28 77.92-76.256 78.24-167.264 1.216-334.56 1.184-501.792 0.064-47.904-0.32-76.96-32.608-78.752-80.928-0.48-13.152-0.16-26.336-0.096-39.52 0.32-66.336 26.144-93.248 93.216-94.016C539.008 770.72 618.016 771.424 697.056 771.392z" p-id="7814"></path><path d="M107.68 37.216c88 0 108.608 19.904 108.672 104.896 0.064 87.168-22.272 109.408-109.76 109.344C22.752 251.392 0 228.224 0 142.848 0 57.184 20.384 37.216 107.68 37.216z" p-id="7815"></path><path d="M216.352 877.856c0 86.304-22.752 108.8-110.144 108.736C22.784 986.56-0.032 963.2 0 877.888c0.032-84.352 22.624-106.592 108.096-106.528C193.312 771.456 216.352 794.144 216.352 877.856z" p-id="7816"></path><path d="M216.352 510.592c0.064 84.448-22.592 107.072-107.296 107.136C22.912 617.76 0.032 595.68 0 512.448c-0.032-87.04 22.848-110.112 109.248-110.048C192.8 402.464 216.288 426.176 216.352 510.592z" p-id="7817"></path></svg>