<?xml version="1.0" standalone="no"?><!DOCTYPE svg PUBLIC "-//W3C//DTD SVG 1.1//EN" "http://www.w3.org/Graphics/SVG/1.1/DTD/svg11.dtd"><svg t="1531537710219" class="icon" style="" viewBox="0 0 1024 1024" version="1.1" xmlns="http://www.w3.org/2000/svg" p-id="5942" xmlns:xlink="http://www.w3.org/1999/xlink" width="16" height="16"><defs><style type="text/css"></style></defs><path d="M688.64 783.36h189.44v-53.76c0-81.92-61.44-148.48-135.68-148.48h-40.96c-10.24 0-17.92-2.56-25.6-7.68-15.36-5.12-28.16-17.92-30.72-35.84-7.68-28.16 10.24-56.32 38.4-61.44 40.96-10.24 69.12-46.08 69.12-87.04 0-48.64-40.96-89.6-89.6-89.6-25.6 0-51.2 12.8-69.12 30.72-5.12 5.12-10.24 10.24-15.36 12.8-5.12 40.96-23.04 79.36-46.08 112.64 94.72 43.52 158.72 143.36 158.72 258.56v69.12z m-69.12 99.84H128c-43.52 0-76.8-35.84-76.8-79.36v-94.72c0-112.64 61.44-209.92 151.04-256-33.28-38.4-51.2-87.04-51.2-140.8 0-117.76 94.72-215.04 215.04-215.04 84.48 0 158.72 51.2 194.56 122.88 30.72-20.48 66.56-30.72 102.4-30.72 104.96 0 192 87.04 192 192 0 38.4-10.24 74.24-30.72 104.96 92.16 35.84 156.16 128 156.16 238.08v81.92c0 40.96-33.28 74.24-74.24 74.24h-276.48c-5.12 5.12-7.68 5.12-10.24 2.56z m-256-353.28h-46.08c-89.6 0-163.84 81.92-163.84 181.76v71.68h430.08v-71.68c0-99.84-74.24-181.76-163.84-181.76h-51.2-5.12z m112.64-212.48c0-61.44-51.2-112.64-112.64-112.64-61.44 0-112.64 51.2-112.64 112.64s51.2 112.64 112.64 112.64c61.44-2.56 112.64-51.2 112.64-112.64z" p-id="5943"></path></svg>