<?xml version="1.0" standalone="no"?><!DOCTYPE svg PUBLIC "-//W3C//DTD SVG 1.1//EN" "http://www.w3.org/Graphics/SVG/1.1/DTD/svg11.dtd"><svg t="1531453876974" class="icon" style="" viewBox="0 0 1440 1024" version="1.1" xmlns="http://www.w3.org/2000/svg" p-id="8682" xmlns:xlink="http://www.w3.org/1999/xlink" width="281.25" height="200"><defs><style type="text/css"></style></defs><path d="M1411.3072 930.336a23.68 23.68 0 0 1-17.44-7.68 27.52 27.52 0 0 1-6.72-20.384c3.968-62.4-9.664-119.936-40.768-170.88-42.496-69.376-103.104-112.992-180.64-129.824-7.424-1.6-15.04-2.496-22.272-3.552a167.36 167.36 0 0 1-13.632-1.984 24.128 24.128 0 0 1-20.224-21.792c-0.864-12.512 5.536-23.04 16.416-26.816 34.72-11.808 64.96-33.792 89.6-65.6a200.544 200.544 0 0 0 42.496-110.144c4.32-58.464-12.256-110.304-49.216-153.728a194.496 194.496 0 0 0-106.368-64.896c-17.952-4.288-36.096-4.832-53.024-4.832a23.072 23.072 0 0 1-22.976-19.136 23.488 23.488 0 0 1 3.968-18.944 24.448 24.448 0 0 1 19.52-9.664c3.648-0.16 7.264-0.352 10.88-0.352 33.504 0 65.12 6.624 93.952 19.84 77.024 35.392 125.376 94.56 143.872 176.096 19.52 86.528-0.864 164.64-60.288 232.416a155.52 155.52 0 0 1-11.904 12.16c-3.104 2.848-5.888 5.536-9.152 8.384l-4.48 4.128a6.016 6.016 0 0 0-1.76 5.344c0.352 1.984 1.728 3.584 3.648 4.288a309.44 309.44 0 0 1 53.344 24.32c64.96 37.728 112.768 92.256 142.496 162.336 19.84 47.168 28.672 98.656 25.92 153.568-0.896 14.656-7.456 24.48-19.008 27.168-2.24-0.192-4.16 0.16-6.24 0.16z m-1385.6 0a23.68 23.68 0 0 0 17.44-7.68 27.52 27.52 0 0 0 6.752-20.384c-3.968-62.4 9.664-119.936 40.768-170.88 42.464-69.376 103.072-112.992 180.64-129.824 7.424-1.6 15.04-2.496 22.272-3.552a167.36 167.36 0 0 0 13.632-1.984c10.88-1.792 19.52-10.88 20.192-21.792 0.864-12.512-5.504-23.04-16.384-26.816-34.72-11.808-64.96-33.792-89.632-65.6a200.544 200.544 0 0 1-42.496-110.144c-4.32-58.464 12.256-110.304 49.216-153.728a194.496 194.496 0 0 1 106.4-64.896c17.952-4.288 36.096-4.832 53.024-4.832 11.392 0 20.704-7.68 22.944-19.136a23.488 23.488 0 0 0-3.968-18.944 24.448 24.448 0 0 0-19.52-9.664c-3.616-0.16-7.232-0.352-10.88-0.352a223.52 223.52 0 0 0-93.92 19.84C205.1312 155.36 156.8112 214.528 138.3152 296.064c-19.52 86.528 0.864 164.64 60.288 232.416 3.616 4.288 7.744 8.224 11.904 12.16 3.104 2.848 5.856 5.536 9.152 8.384l4.48 4.128c1.376 1.408 2.08 3.2 1.728 5.344a5.664 5.664 0 0 1-3.616 4.288 309.44 309.44 0 0 0-53.376 24.32C103.9472 624.832 56.1072 679.36 26.4112 749.44c-19.84 47.168-28.672 98.656-25.92 153.568 0.864 14.656 7.456 24.48 19.008 27.168 2.24-0.192 4.16 0.16 6.208 0.16z m213.888 89.984c-12.8-5.824-19.104-18.976-16.512-35.36 10.24-60.864 31.04-117.824 61.44-169.376 53.984-90.848 130.144-159.456 226.912-203.68 12.384-5.6 24.96-10.784 37.536-15.104 3.264-0.864 6.72-1.92 9.12-5.408a7.456 7.456 0 0 0 1.28-5.184 8.096 8.096 0 0 0-3.008-4.512c-88.32-56.32-139.072-134.4-150.592-232.16-11.264-93.632 15.424-176.48 79.424-246.624A314.88 314.88 0 0 1 717.3232 0c88.544 0 170.56 35.84 230.624 101.184 67.264 72.704 94.4 159.04 80.512 256.32-13.44 94.304-63.776 169.824-149.92 224.64a6.784 6.784 0 0 0-3.04 6.464c0.416 2.56 1.952 4.736 4.544 5.6 12.384 4.32 26.912 9.504 40.8 15.968 129.088 59.104 219.776 156 269.248 288.256 9.76 26.112 17.152 54.784 22.784 87.808 2.816 16.416-9.344 33.664-26.24 36.48a33.28 33.28 0 0 1-6.528 0.64L255.8512 1024a41.28 41.28 0 0 1-16.256-3.68z m484.256-5.376c42.528-41.632 80.704-79.2 117.152-114.56l0.448-0.448c0-0.224-0.224-0.224-0.448-0.64a14086.944 14086.944 0 0 1-57.28-96.448l-59.872-101.44-22.56 37.76c-31.68 53.312-63.584 107.04-95.264 160.544 0.224 0 0.224 0 0.448 0.224 34.72 33.888 75.936 73.792 117.376 115.008z" p-id="8683"></path></svg>