<?xml version="1.0" standalone="no"?><!DOCTYPE svg PUBLIC "-//W3C//DTD SVG 1.1//EN" "http://www.w3.org/Graphics/SVG/1.1/DTD/svg11.dtd"><svg t="1531533308348" class="icon" style="" viewBox="0 0 1024 1024" version="1.1" xmlns="http://www.w3.org/2000/svg" p-id="6335" xmlns:xlink="http://www.w3.org/1999/xlink" width="16" height="16"><defs><style type="text/css"></style></defs><path d="M859.648 437.602462H764.455385V263.758769c0-140.957538-103.305846-255.251692-230.793847-255.251692h-43.283692c-127.527385 0-230.833231 114.333538-230.833231 255.251692v173.843693H164.312615c-25.521231 0-46.158769 22.803692-46.158769 51.081846v475.293538c0 28.199385 20.637538 51.003077 46.158769 51.003077h695.335385c25.521231 0 46.198154-22.803692 46.198154-51.003077V488.684308c0-28.278154-20.637538-51.081846-46.198154-51.081846zM512 925.656615c-48.167385 0-87.315692-43.126154-87.315692-96.452923 0-33.910154 15.832615-63.606154 39.699692-80.81723v-166.754462c0-26.702769 20.637538-48.285538 46.158769-48.285538 25.560615 0 46.119385 21.582769 46.119385 48.285538v164.785231c25.481846 16.856615 42.574769 47.616 42.574769 82.825846 0.039385 53.287385-39.030154 96.413538-87.236923 96.413538z m178.372923-488.054153h-348.632615v-154.781539c0-94.759385 71.404308-171.598769 159.389538-171.598769h29.892923c87.945846 0 159.350154 76.839385 159.350154 171.598769v154.781539z" p-id="6336"></path></svg>