<?xml version="1.0" standalone="no"?><!DOCTYPE svg PUBLIC "-//W3C//DTD SVG 1.1//EN" "http://www.w3.org/Graphics/SVG/1.1/DTD/svg11.dtd"><svg t="1531461642620" class="icon" style="" viewBox="0 0 1024 1024" version="1.1" xmlns="http://www.w3.org/2000/svg" p-id="8912" xmlns:xlink="http://www.w3.org/1999/xlink" width="200" height="200"><defs><style type="text/css"></style></defs><path d="M340.053333 561.322667H154.752a90.026667 90.026667 0 0 0-64.277333 27.221333C75.328 604.096 64 627.456 64 650.794667v202.282666c0 23.338667 11.328 46.677333 26.474667 62.229334C105.6 930.88 128.298667 938.666667 154.752 938.666667h185.322667c22.677333 0 45.376-7.786667 60.501333-23.36 18.922667-15.552 30.250667-38.890667 30.250667-62.229334v-202.282666c0-23.36-11.328-46.677333-30.250667-62.250667-15.125333-15.573333-37.824-27.221333-60.522667-27.221333z m30.250667 291.733333c0 3.904-3.776 11.669333-7.552 15.552-7.552 3.904-15.125333 7.786667-22.677333 7.786667H154.773333c-7.552 0-18.922667-3.904-22.677333-7.786667-3.797333-3.904-7.573333-11.669333-7.573333-15.552v-202.261333c0-7.786667 3.797333-11.669333 7.573333-15.552 3.776-7.765333 15.104-11.669333 22.677333-11.669334h185.301334c7.552 0 15.125333 3.882667 22.677333 11.669334 3.797333 3.904 7.552 7.765333 7.552 15.552v202.261333zM922.453333 261.781333c-3.776-23.338667-18.922667-42.794667-41.6-58.346666l-151.274666-101.141334c-22.677333-15.552-45.376-19.434667-68.053334-15.552-22.677333 3.904-45.397333 15.552-56.725333 38.890667l-105.898667 167.296c-15.104 23.338667-15.104 46.677333-11.328 70.016 7.552 23.338667 22.677333 42.794667 41.6 54.464l49.664 33.642667c1.621333 1.578667 3.413333 3.072 5.376 4.394666l79.424 53.610667c16.128 10.88 36.821333 7.850667 46.208-6.741333s3.946667-35.264-12.181333-46.144l-1.557333-1.066667 0.725333-1.088-70.72-46.144-7.850667-5.290667c-0.554667-0.384-1.173333-0.618667-1.749333-0.96l-53.290667-34.752c-7.552-3.882667-15.125333-11.669333-15.125333-19.434666-3.797333-7.786667 0-15.552 3.797333-19.456l102.08-167.274667c3.797333-7.765333 11.349333-11.669333 18.922667-11.669333s15.125333 0 22.677333 3.904l155.072 105.024c7.552 3.904 11.328 11.669333 15.125334 19.456 0 3.904 0 11.669333-3.797334 19.456l-15.338666 24.213333 1.792 1.109333a30.912 30.912 0 0 0-8.405334 21.205334c0 16.938667 13.44 30.677333 29.994667 30.677333 13.162667 0 24.256-8.746667 28.266667-20.821333l0.725333 0.448 15.893333-25.706667c11.349333-19.52 15.146667-46.741333 7.552-66.218667z m-192.874666 299.541334h-185.322667c-22.677333 0-45.376 11.669333-60.501333 27.221333-18.922667 15.552-30.250667 38.912-30.250667 62.250667v202.282666c0 23.338667 11.328 46.677333 30.250667 62.229334 15.146667 15.573333 37.824 23.36 60.522666 23.36H729.6c26.453333 0 49.173333-7.786667 64.298667-23.36 18.901333-15.552 26.453333-38.890667 26.453333-62.229334v-202.282666c0-23.36-7.552-46.677333-26.453333-62.250667a90.026667 90.026667 0 0 0-64.32-27.221333z m30.250666 291.733333c0 3.904-3.776 11.669333-7.552 15.552-3.776 3.904-11.328 7.786667-22.677333 7.786667h-185.301333c-7.552 0-15.125333-3.904-22.677334-7.786667-3.797333-3.904-7.573333-11.669333-7.573333-15.552v-202.261333c0-7.786667 3.797333-11.669333 7.573333-15.552 7.552-7.765333 15.125333-11.669333 22.677334-11.669334H729.6c11.349333 0 18.922667 3.882667 22.677333 11.669334 3.797333 3.904 7.552 7.765333 7.552 15.552v202.261333zM340.053333 145.088H154.752c-26.453333 0-49.152 7.765333-64.277333 23.338667C75.328 187.861333 64 207.317333 64 234.538667v198.4a95.146667 95.146667 0 0 0 26.474667 66.133333c15.125333 15.552 37.802667 23.36 64.277333 23.36h185.322667c22.677333 0 45.376-7.786667 60.501333-23.36 18.922667-15.552 30.250667-38.890667 30.250667-66.133333v-198.4c0-27.221333-11.328-46.677333-30.250667-66.133334-15.125333-15.530667-37.824-23.317333-60.522667-23.317333z m30.250667 287.872c0 7.786667-3.776 15.552-7.552 19.434667-7.552 3.904-15.125333 7.786667-22.677333 7.786666H154.773333c-7.552 0-18.922667-3.904-22.677333-7.786666a30.058667 30.058667 0 0 1-7.573333-19.434667v-198.4c0-7.786667 3.797333-11.669333 7.573333-19.456 3.754667-3.904 15.082667-7.786667 22.677333-7.786667h185.301334c7.552 0 15.125333 3.904 22.677333 7.786667 3.797333 7.786667 7.552 11.669333 7.552 19.456v198.4z m463.018667-39.594667c-13.781333-9.429333-33.877333-3.669333-44.864 12.885334l-12.736 19.157333c-10.986667 16.554667-8.682667 37.610667 5.098666 47.018667 13.781333 9.429333 33.877333 3.669333 44.864-12.885334l12.736-19.178666c10.944-16.512 8.682667-37.568-5.098666-46.997334z" p-id="8913"></path></svg>