<?xml version="1.0" standalone="no"?><!DOCTYPE svg PUBLIC "-//W3C//DTD SVG 1.1//EN" "http://www.w3.org/Graphics/SVG/1.1/DTD/svg11.dtd"><svg t="1531537558307" class="icon" style="" viewBox="0 0 1024 1024" version="1.1" xmlns="http://www.w3.org/2000/svg" p-id="3781" xmlns:xlink="http://www.w3.org/1999/xlink" width="16" height="16"><defs><style type="text/css"></style></defs><path d="M431.104 162.304c0-37.376-30.208-67.072-67.072-67.072h-296.96C29.696 95.232 0 125.44 0 162.304v296.448c0 37.376 30.208 67.072 67.072 67.072H363.52c37.376 0 67.072-30.208 67.072-67.072V162.304h0.512z m0 498.176c0-37.376-30.208-67.584-67.072-67.584h-296.96C29.696 592.896 0 623.104 0 660.48v296.448c0 37.376 30.208 67.072 67.072 67.072H363.52c37.376 0 67.072-29.696 67.072-67.072V660.48h0.512z m363.52-641.024c-26.112-26.112-69.12-26.112-95.232 0l-209.92 209.92c-26.112 26.112-26.112 69.12 0 95.232l209.92 209.92c26.112 26.112 69.12 26.112 95.232 0l209.92-209.92c26.112-26.112 26.112-69.12 0-95.232l-209.92-209.92zM929.28 660.48c0-37.376-30.208-67.584-67.072-67.584h-296.448c-37.376 0-67.072 30.208-67.072 67.584v296.448c0 37.376 30.208 67.072 67.072 67.072h296.448c37.376 0 67.072-29.696 67.072-67.072V660.48z" p-id="3782"></path></svg>